<svg width="152" height="41" viewBox="0 0 152 41" fill="none" xmlns="http://www.w3.org/2000/svg">
<g clip-path="url(#clip0_262_1838)">
<mask id="mask0_262_1838" style="mask-type:luminance" maskUnits="userSpaceOnUse" x="44" y="0" width="23" height="23">
<path d="M50.726 16.1351C49.4511 14.7698 48.7421 12.9714 48.7421 11.1034C48.7421 9.23548 49.4511 7.43713 50.726 6.0718C52.0461 4.79976 53.8079 4.08906 55.6411 4.08906C57.4744 4.08906 59.2362 4.79976 60.5563 6.0718C61.8311 7.43713 62.5402 9.23548 62.5402 11.1034C62.5402 12.9714 61.8311 14.7698 60.5563 16.1351C59.2315 17.3979 57.4714 18.1023 55.6411 18.1023C53.8109 18.1023 52.0508 17.3979 50.726 16.1351ZM47.7865 3.22063C45.9244 5.04507 44.7542 7.4598 44.4759 10.0518C44.1977 12.6438 44.8287 15.252 46.2611 17.4301C47.6935 19.6082 49.8382 21.2209 52.3283 21.9923C54.8184 22.7638 57.4992 22.6459 59.9121 21.6591C62.3249 20.6722 64.3199 18.8776 65.5557 16.5822C66.7915 14.2869 67.1914 11.6335 66.6869 9.0759C66.1824 6.51831 64.8048 4.21551 62.7899 2.56142C60.775 0.907327 58.248 0.00474814 55.6411 0.00809439C54.1821 -0.0200488 52.7327 0.250447 51.3819 0.802895C50.0312 1.35534 48.8076 2.17808 47.7865 3.22063Z" fill="white"/>
</mask>
<g mask="url(#mask0_262_1838)">
<path d="M67.8842 -1.16901H43.358V23.3838H67.8842V-1.16901Z" fill="url(#paint0_linear_262_1838)"/>
</g>
<path d="M87.0437 0.425659V4.45739H81.2692V21.789H77.0607V4.45739H71.3263V0.425659H87.0437Z" fill="white"/>
<path d="M98.0547 0.425659H93.8462V21.789H98.0547V0.425659Z" fill="white"/>
<path d="M114.439 22.2228C112.304 22.3064 110.215 21.5872 108.584 20.2069C107.825 19.5322 107.226 18.6972 106.83 17.7623C106.434 16.8274 106.251 15.8161 106.295 14.8018V0.433716H110.471V14.4725C110.445 14.9576 110.517 15.4431 110.682 15.8998C110.848 16.3566 111.104 16.7753 111.435 17.1309C112.309 17.7674 113.362 18.1103 114.443 18.1103C115.524 18.1103 116.577 17.7674 117.45 17.1309C117.78 16.7749 118.035 16.3559 118.199 15.8991C118.364 15.4424 118.434 14.9571 118.406 14.4725V0.433716H122.623V14.8098C122.666 15.8242 122.483 16.8353 122.087 17.7702C121.691 18.7051 121.092 19.5402 120.334 20.2149C118.689 21.5992 116.586 22.3183 114.439 22.2308" fill="white"/>
<path d="M151.768 0.425659V21.789H147.592V7.93496L141.577 17.8537H141.087L135.079 7.96709V21.789H130.863V0.425659H135.2L141.336 10.5291L147.439 0.425659H151.768Z" fill="white"/>
<path d="M82.6746 33.4746C83.5599 33.6201 84.3742 34.0484 84.9957 34.6954C85.5997 35.3496 85.9227 36.2148 85.8952 37.1048C85.9193 37.6416 85.8204 38.1769 85.6061 38.6696C85.3917 39.1624 85.0676 39.5995 84.6584 39.9478C83.8177 40.65 82.7496 41.0213 81.6547 40.9919C80.7742 41.0076 79.9058 40.7856 79.1409 40.3494C78.4216 39.9294 77.8729 39.2699 77.5908 38.4862L78.9642 37.683C79.3336 38.8235 80.2251 39.3937 81.6547 39.3937C82.3304 39.4233 82.9943 39.2095 83.526 38.7914C83.7677 38.5862 83.9587 38.3279 84.0841 38.0368C84.2095 37.7456 84.2659 37.4294 84.2488 37.1128C84.2641 36.7953 84.207 36.4784 84.0817 36.1862C83.9565 35.894 83.7664 35.6341 83.526 35.4262C82.9968 35.0025 82.3318 34.7857 81.6547 34.8159H81.2451L80.5945 33.812L83.4537 29.9408H77.9602V28.4068H85.3812V29.8525L82.6746 33.4746Z" fill="white"/>
<path d="M113.74 32.6795C114.301 32.6601 114.861 32.7523 115.386 32.9508C115.911 33.1493 116.392 33.4502 116.8 33.836C117.567 34.6461 117.995 35.7196 117.995 36.8357C117.995 37.9517 117.567 39.0254 116.8 39.8355C115.956 40.5863 114.865 41.001 113.736 41.001C112.606 41.001 111.516 40.5863 110.672 39.8355C110.277 39.4444 109.967 38.9754 109.762 38.4583C109.558 37.9413 109.463 37.3874 109.483 36.8317C109.459 35.9494 109.718 35.0827 110.222 34.3581L114.198 28.4068H116.069L113.154 32.7116C113.419 32.7116 113.611 32.7116 113.74 32.7116M111.836 38.7431C112.089 38.9843 112.388 39.172 112.715 39.2948C113.042 39.4176 113.391 39.4731 113.74 39.4579C114.088 39.4739 114.435 39.4188 114.761 39.2959C115.087 39.173 115.385 38.9849 115.635 38.7431C115.882 38.4986 116.076 38.2051 116.203 37.8815C116.33 37.5579 116.389 37.2113 116.374 36.8638C116.389 36.5175 116.332 36.1719 116.204 35.8494C116.077 35.527 115.883 35.235 115.635 34.9926C115.106 34.5364 114.431 34.2854 113.732 34.2854C113.033 34.2854 112.358 34.5364 111.828 34.9926C111.585 35.2373 111.395 35.53 111.27 35.8522C111.146 36.1743 111.09 36.5188 111.106 36.8638C111.092 37.2105 111.149 37.5563 111.275 37.8797C111.401 38.2031 111.592 38.497 111.836 38.7431Z" fill="white"/>
<path d="M150.017 39.2491C149.606 39.7931 149.075 40.2344 148.464 40.5382C147.854 40.842 147.182 41 146.5 41C145.818 41 145.145 40.842 144.535 40.5382C143.925 40.2344 143.393 39.7931 142.982 39.2491C142.161 37.8325 141.729 36.2243 141.729 34.587C141.729 32.9497 142.161 31.3414 142.982 29.9248C143.393 29.3808 143.925 28.9397 144.535 28.6358C145.145 28.332 145.818 28.1739 146.5 28.1739C147.182 28.1739 147.854 28.332 148.464 28.6358C149.075 28.9397 149.606 29.3808 150.017 29.9248C150.838 31.3414 151.27 32.9497 151.27 34.587C151.27 36.2243 150.838 37.8325 150.017 39.2491ZM144.187 38.1408C144.426 38.5369 144.766 38.8619 145.173 39.0822C145.579 39.3025 146.037 39.4101 146.5 39.3937C146.963 39.4082 147.421 39.2999 147.829 39.0798C148.237 38.8598 148.579 38.5358 148.821 38.1408C149.36 37.0322 149.64 35.8157 149.64 34.583C149.64 33.3503 149.36 32.1336 148.821 31.0251C148.57 30.6389 148.227 30.3215 147.822 30.1018C147.417 29.8821 146.964 29.767 146.504 29.767C146.043 29.767 145.59 29.8821 145.185 30.1018C144.781 30.3215 144.437 30.6389 144.187 31.0251C143.647 32.135 143.367 33.353 143.367 34.587C143.367 35.821 143.647 37.0389 144.187 38.1489" fill="white"/>
<mask id="mask1_262_1838" style="mask-type:luminance" maskUnits="userSpaceOnUse" x="53" y="31" width="6" height="6">
<path d="M53.5369 34.1171C53.5369 34.621 53.6865 35.1136 53.9666 35.5324C54.2467 35.9513 54.6448 36.2776 55.1104 36.47C55.5761 36.6625 56.0884 36.7125 56.5825 36.6136C57.0766 36.5147 57.5302 36.2714 57.886 35.9146C58.2417 35.5577 58.4835 35.1033 58.5809 34.6089C58.6782 34.1145 58.6266 33.6024 58.4327 33.1373C58.2388 32.6722 57.9112 32.2751 57.4915 31.9963C57.0717 31.7176 56.5787 31.5697 56.0748 31.5712C55.7409 31.5712 55.4102 31.6371 55.1018 31.7652C54.7933 31.8932 54.5132 32.0809 54.2774 32.3174C54.0416 32.5539 53.8549 32.8346 53.7278 33.1435C53.6007 33.4523 53.5359 33.7832 53.5369 34.1171Z" fill="white"/>
</mask>
<g mask="url(#mask1_262_1838)">
<path d="M58.6208 31.5712H53.5369V36.655H58.6208V31.5712Z" fill="url(#paint1_linear_262_1838)"/>
</g>
<path d="M8.38472 22.2226C6.50556 22.2873 4.6495 21.7925 3.05191 20.801C1.63237 19.8896 0.558157 18.5299 -3.8147e-06 16.938L3.59805 14.8338C3.93897 15.8465 4.6068 16.7171 5.49654 17.3088C6.38629 17.9005 7.44748 18.1797 8.51322 18.1025C9.42453 18.1729 10.3343 17.9476 11.1073 17.4599C11.3762 17.2605 11.5914 16.9976 11.7337 16.6946C11.876 16.3915 11.9409 16.0579 11.9226 15.7237C11.9043 15.3894 11.8034 15.0649 11.6288 14.7793C11.4543 14.4936 11.2117 14.2557 10.9226 14.0868C9.78359 13.4883 8.57514 13.0325 7.32459 12.7296C6.50568 12.4894 5.70122 12.2025 4.91519 11.8702C4.21515 11.5619 3.55012 11.1795 2.93144 10.7297C2.28258 10.2623 1.76304 9.63779 1.42155 8.91468C1.06278 8.10923 0.887228 7.23414 0.907542 6.35263C0.872153 5.47546 1.03921 4.60193 1.39575 3.7997C1.75229 2.99748 2.28875 2.2881 2.96356 1.72657C4.35496 0.57005 6.11817 -0.0433813 7.92694 -0.000183924C9.5387 -0.0307232 11.1243 0.410395 12.4887 1.26883C13.8189 2.13648 14.8812 3.35732 15.5567 4.7946L12.0149 6.8345C11.7022 6.00945 11.1409 5.30197 10.4085 4.8099C9.67614 4.31782 8.80897 4.06553 7.92694 4.08784C7.19016 4.04558 6.46129 4.25829 5.86288 4.69019C5.6257 4.86837 5.43429 5.10034 5.30442 5.36705C5.17456 5.63376 5.10997 5.92752 5.11597 6.22411C5.11145 6.53659 5.18204 6.84566 5.3218 7.12518C5.46156 7.4047 5.66641 7.6465 5.9191 7.83037C6.91608 8.44085 7.99897 8.89842 9.13164 9.18772C9.79021 9.38851 10.2801 9.54911 10.6174 9.66154C10.9547 9.77398 11.4206 9.94265 11.9908 10.1756C12.4567 10.3545 12.9055 10.5749 13.332 10.8341C13.7097 11.0791 14.0718 11.3474 14.4163 11.6372C14.7854 11.9376 15.1005 12.2989 15.3479 12.7055C15.869 13.627 16.1455 14.6666 16.151 15.7252C16.185 16.6222 16.0079 17.5146 15.6341 18.3306C15.2603 19.1467 14.7001 19.8635 13.9986 20.4236C12.3857 21.6432 10.3967 22.2598 8.37669 22.1664" fill="white"/>
<path d="M31.1536 0.43372C32.114 0.412267 33.0688 0.585535 33.9605 0.943032C34.8522 1.30053 35.6622 1.83482 36.3418 2.51381C37.6881 3.86811 38.4437 5.70018 38.4437 7.60977C38.4437 9.51936 37.6881 11.3513 36.3418 12.7056C35.6618 13.3836 34.8515 13.9167 33.9598 14.2728C33.0681 14.6289 32.1135 14.8007 31.1536 14.7777H27.4351V21.7971H23.2186V0.43372H31.1536ZM31.1536 10.8745C31.5706 10.887 31.9855 10.8104 32.3705 10.6498C32.7556 10.4891 33.1019 10.248 33.3863 9.9428C33.9547 9.308 34.2689 8.48586 34.2689 7.63379C34.2689 6.78172 33.9547 5.95958 33.3863 5.32478C33.0986 5.0249 32.7513 4.78854 32.3668 4.63086C31.9823 4.47318 31.569 4.39766 31.1536 4.4092H27.4351V10.8343L31.1536 10.8745Z" fill="white"/>
</g>
<defs>
<linearGradient id="paint0_linear_262_1838" x1="43.358" y1="1.30066" x2="67.8842" y2="1.30066" gradientUnits="userSpaceOnUse">
<stop stop-color="#F1F1F3"/>
<stop offset="0.05" stop-color="#E4E4E7"/>
<stop offset="0.28" stop-color="#A3A4AB"/>
<stop offset="0.5" stop-color="#70717C"/>
<stop offset="0.69" stop-color="#4B4D5A"/>
<stop offset="0.84" stop-color="#343645"/>
<stop offset="0.93" stop-color="#2C2E3D"/>
<stop offset="1" stop-color="#2C2E3D"/>
</linearGradient>
<linearGradient id="paint1_linear_262_1838" x1="53.5369" y1="40.7431" x2="58.6208" y2="40.7431" gradientUnits="userSpaceOnUse">
<stop stop-color="#F1F1F3"/>
<stop offset="0.05" stop-color="#E4E4E7"/>
<stop offset="0.28" stop-color="#A3A4AB"/>
<stop offset="0.5" stop-color="#70717C"/>
<stop offset="0.69" stop-color="#4B4D5A"/>
<stop offset="0.84" stop-color="#343645"/>
<stop offset="0.93" stop-color="#2C2E3D"/>
<stop offset="1" stop-color="#2C2E3D"/>
</linearGradient>
<clipPath id="clip0_262_1838">
<rect width="151.768" height="41" fill="white"/>
</clipPath>
</defs>
</svg>
